<?xml version="1.0" encoding="UTF-8" standalone="no"?>
<!DOCTYPE svg PUBLIC "-//W3C//DTD SVG 1.1//EN" "http://www.w3.org/Graphics/SVG/1.1/DTD/svg11.dtd">
<svg width="100%" height="100%" viewBox="0 0 100 100" version="1.1" xmlns="http://www.w3.org/2000/svg" xmlns:xlink="http://www.w3.org/1999/xlink" xml:space="preserve" xmlns:serif="http://www.serif.com/" style="fill-rule:evenodd;clip-rule:evenodd;stroke-linejoin:round;stroke-miterlimit:2;">
    <g>
        <path d="M50,1.471C23.378,1.471 1.471,23.378 1.471,50C1.471,76.622 23.378,98.529 50,98.529C76.622,98.529 98.529,76.622 98.529,50C98.529,23.378 76.622,1.471 50,1.471ZM50,82.971C46.773,82.971 44.118,80.315 44.118,77.088C44.118,73.861 46.773,71.206 50,71.206C53.227,71.206 55.882,73.861 55.882,77.088C55.882,80.315 53.227,82.971 50,82.971ZM58.824,57.5C56.981,58.401 55.829,60.303 55.882,62.353L55.882,65.397C55.882,66.204 55.219,66.868 54.412,66.868L45.588,66.868C44.781,66.868 44.118,66.204 44.118,65.397L44.118,62.353C44.056,55.713 47.887,49.618 53.897,46.794C57.383,45.217 59.572,41.661 59.412,37.838C59.149,32.984 55.223,29.064 50.368,28.809C50.24,28.804 50.113,28.801 49.985,28.801C44.83,28.801 40.588,33.043 40.588,38.198C40.588,38.21 40.588,38.223 40.588,38.235C40.588,39.042 39.924,39.706 39.118,39.706L30.294,39.706C29.487,39.706 28.824,39.042 28.824,38.235C28.824,38.23 28.824,38.225 28.824,38.22C28.824,26.603 38.383,17.043 50,17.043C50.27,17.043 50.539,17.049 50.809,17.059C62.12,17.492 71.188,26.915 71.188,38.234C71.188,46.507 66.344,54.054 58.824,57.5Z" style="fill:rgb(186,186,186);fill-opacity:0.63;fill-rule:nonzero;"/>
    </g>
</svg>
